<svg width="139" height="38" viewBox="0 0 139 38" fill="none" xmlns="http://www.w3.org/2000/svg">
<rect width="139" height="38" fill="#130101"/>
<path d="M25.8379 15.1016L25.3984 15.1211C25.2096 14.7109 24.9622 14.3464 24.6562 14.0273C24.3568 13.7083 24.0182 13.4382 23.6406 13.2168C23.2695 12.9954 22.8757 12.8294 22.459 12.7188C22.0423 12.6016 21.6289 12.543 21.2188 12.543C20.724 12.543 20.2585 12.6406 19.8223 12.8359C19.3861 13.0312 18.9857 13.2982 18.6211 13.6367C18.2565 13.9753 17.9277 14.3724 17.6348 14.8281C17.3483 15.2773 17.1042 15.7591 16.9023 16.2734C16.707 16.7812 16.5573 17.3086 16.4531 17.8555C16.349 18.4023 16.2969 18.9362 16.2969 19.457C16.2969 19.9844 16.3587 20.502 16.4824 21.0098C16.6061 21.5176 16.7819 22.0026 17.0098 22.4648C17.2376 22.9206 17.5176 23.3405 17.8496 23.7246C18.1816 24.1087 18.5527 24.444 18.9629 24.7305C19.373 25.0104 19.8223 25.2285 20.3105 25.3848C20.7988 25.541 21.3164 25.6191 21.8633 25.6191C22.3581 25.6191 22.7943 25.5736 23.1719 25.4824C23.5495 25.3848 23.875 25.2643 24.1484 25.1211C24.4284 24.9779 24.6628 24.8216 24.8516 24.6523C25.0404 24.4766 25.1966 24.3105 25.3203 24.1543C25.444 23.998 25.5352 23.8613 25.5938 23.7441C25.6589 23.6204 25.7077 23.5391 25.7402 23.5L25.584 24.877C25.4147 25.1048 25.1803 25.3164 24.8809 25.5117C24.5879 25.7005 24.2428 25.8665 23.8457 26.0098C23.4486 26.1595 23.0059 26.2734 22.5176 26.3516C22.0358 26.4362 21.5247 26.4785 20.9844 26.4785C20.2682 26.4785 19.5716 26.4069 18.8945 26.2637C18.224 26.1204 17.5924 25.9154 17 25.6484C16.4076 25.3815 15.8639 25.0527 15.3691 24.6621C14.8809 24.265 14.4577 23.819 14.0996 23.3242C13.748 22.8294 13.4714 22.2826 13.2695 21.6836C13.0677 21.0846 12.9635 20.4434 12.957 19.7598C12.9766 18.7051 13.1589 17.7578 13.5039 16.918C13.8555 16.0716 14.321 15.3359 14.9004 14.7109C15.4863 14.0794 16.1667 13.5586 16.9414 13.1484C17.7161 12.7318 18.543 12.4225 19.4219 12.2207C19.8841 12.11 20.4147 12.0384 21.0137 12.0059C21.6126 11.9733 22.2148 11.957 22.8203 11.957C23.4062 11.957 23.9564 11.9635 24.4707 11.9766C24.9915 11.9896 25.4277 11.9961 25.7793 11.9961C25.7077 12.3021 25.6556 12.5755 25.623 12.8164C25.597 13.0508 25.584 13.2721 25.584 13.4805C25.584 13.7734 25.6068 14.0469 25.6523 14.3008C25.6979 14.5482 25.7598 14.8151 25.8379 15.1016ZM27.1953 22.8535C27.1953 22.6074 27.2266 22.3555 27.2891 22.0977C27.3516 21.8359 27.4473 21.5801 27.5762 21.3301C27.7051 21.0801 27.8672 20.8457 28.0625 20.627C28.2617 20.4043 28.4941 20.209 28.7598 20.041C29.0293 19.873 29.334 19.7402 29.6738 19.6426C30.0176 19.5449 30.3984 19.4961 30.8164 19.4961C31.2539 19.4961 31.6465 19.541 31.9941 19.6309C32.3457 19.7207 32.6562 19.8457 32.9258 20.0059C33.1953 20.1621 33.4277 20.3477 33.623 20.5625C33.8184 20.7773 33.9785 21.0098 34.1035 21.2598C34.2285 21.5098 34.3203 21.7715 34.3789 22.0449C34.4375 22.3145 34.4668 22.584 34.4668 22.8535C34.4668 23.1113 34.4375 23.373 34.3789 23.6387C34.3203 23.9004 34.2266 24.1543 34.0977 24.4004C33.9727 24.6465 33.8125 24.8789 33.6172 25.0977C33.4258 25.3125 33.1934 25.5 32.9199 25.6602C32.6504 25.8203 32.3398 25.9473 31.9883 26.041C31.6406 26.1348 31.25 26.1816 30.8164 26.1816C30.3984 26.1816 30.0195 26.1348 29.6797 26.041C29.3398 25.9512 29.0352 25.8262 28.7656 25.666C28.5 25.5059 28.2676 25.3184 28.0684 25.1035C27.873 24.8848 27.709 24.6523 27.5762 24.4062C27.4473 24.1602 27.3516 23.9043 27.2891 23.6387C27.2266 23.373 27.1953 23.1113 27.1953 22.8535ZM28.9824 22.8301C28.9824 23.2012 29.0078 23.5625 29.0586 23.9141C29.1133 24.2656 29.207 24.5781 29.3398 24.8516C29.4766 25.125 29.6602 25.3477 29.8906 25.5195C30.125 25.6875 30.4219 25.7754 30.7812 25.7832C31.0195 25.7832 31.2324 25.7441 31.4199 25.666C31.6074 25.584 31.7715 25.4727 31.9121 25.332C32.0527 25.1914 32.1719 25.0273 32.2695 24.8398C32.3672 24.6523 32.4473 24.4512 32.5098 24.2363C32.5723 24.0215 32.6172 23.7988 32.6445 23.5684C32.6758 23.3379 32.6953 23.1094 32.7031 22.8828C32.7031 22.6523 32.6914 22.418 32.668 22.1797C32.6445 21.9414 32.6055 21.7129 32.5508 21.4941C32.4961 21.2715 32.4219 21.0645 32.3281 20.873C32.2383 20.6777 32.125 20.5098 31.9883 20.3691C31.8516 20.2246 31.6895 20.1113 31.502 20.0293C31.3184 19.9473 31.1035 19.9062 30.8574 19.9062C30.498 19.9062 30.1992 19.9883 29.9609 20.1523C29.7227 20.3125 29.5312 20.5273 29.3867 20.7969C29.2422 21.0664 29.1387 21.3789 29.0762 21.7344C29.0176 22.0859 28.9863 22.4512 28.9824 22.8301ZM40.7949 25.0508C40.7012 25.1914 40.5859 25.3301 40.4492 25.4668C40.3125 25.5996 40.1504 25.7207 39.9629 25.8301C39.7754 25.9355 39.5625 26.0195 39.3242 26.082C39.0859 26.1484 38.8164 26.1816 38.5156 26.1816C38.0078 26.1816 37.5605 26.0918 37.1738 25.9121C36.791 25.7285 36.4707 25.4902 36.2129 25.1973C35.9551 24.9004 35.7598 24.5664 35.627 24.1953C35.498 23.8242 35.4336 23.4492 35.4336 23.0703C35.4336 22.7852 35.4609 22.498 35.5156 22.209C35.5742 21.9199 35.6621 21.6426 35.7793 21.377C35.8965 21.1074 36.0449 20.8555 36.2246 20.6211C36.4043 20.3867 36.6191 20.1836 36.8691 20.0117C37.1191 19.8359 37.4043 19.6992 37.7246 19.6016C38.0449 19.5 38.4043 19.4492 38.8027 19.4492C39.0293 19.4492 39.2422 19.4688 39.4414 19.5078C39.6406 19.543 39.8223 19.5918 39.9863 19.6543C40.1543 19.7129 40.3047 19.7812 40.4375 19.8594C40.5742 19.9336 40.6934 20.0078 40.7949 20.082V17.5625C40.7949 17.5039 40.7832 17.4414 40.7598 17.375C40.7402 17.3047 40.7012 17.2422 40.6426 17.1875C40.584 17.1289 40.5039 17.082 40.4023 17.0469C40.3008 17.0078 40.168 16.9883 40.0039 16.9883V16.7598H42.5V25.209C42.5 25.2676 42.5098 25.3301 42.5293 25.3965C42.5527 25.4629 42.5938 25.5254 42.6523 25.584C42.7109 25.6387 42.791 25.6855 42.8926 25.7246C42.998 25.7637 43.1309 25.7832 43.291 25.7832V26H40.7949V25.0508ZM38.9492 25.5664C39.2031 25.5664 39.4258 25.5195 39.6172 25.4258C39.8086 25.332 39.9727 25.2148 40.1094 25.0742C40.2461 24.9336 40.3574 24.7793 40.4434 24.6113C40.5332 24.4395 40.6035 24.2773 40.6543 24.125C40.709 23.9688 40.7461 23.834 40.7656 23.7207C40.7852 23.6035 40.7949 23.5273 40.7949 23.4922V21.2012L40.3438 21.8105C40.3242 21.4551 40.2617 21.1367 40.1562 20.8555C40.1094 20.7344 40.0508 20.6172 39.9805 20.5039C39.9102 20.3867 39.8223 20.2832 39.7168 20.1934C39.6152 20.1035 39.4941 20.0312 39.3535 19.9766C39.2129 19.9219 39.0508 19.8945 38.8672 19.8945C38.5742 19.8945 38.3203 19.9688 38.1055 20.1172C37.8906 20.2656 37.7148 20.4688 37.5781 20.7266C37.4414 20.9805 37.3398 21.2773 37.2734 21.6172C37.207 21.957 37.1738 22.3184 37.1738 22.7012C37.1738 23.2012 37.2207 23.6309 37.3145 23.9902C37.4121 24.3496 37.541 24.6465 37.7012 24.8809C37.8613 25.1152 38.0488 25.2891 38.2637 25.4023C38.4785 25.5117 38.707 25.5664 38.9492 25.5664ZM45.916 22.3379C45.9082 22.4238 45.9043 22.5078 45.9043 22.5898C45.9043 22.668 45.9043 22.748 45.9043 22.8301C45.9043 23.2012 45.9277 23.5625 45.9746 23.9141C46.0215 24.2656 46.1074 24.5781 46.2324 24.8516C46.3613 25.125 46.5391 25.3477 46.7656 25.5195C46.9922 25.6875 47.2852 25.7754 47.6445 25.7832C47.875 25.7832 48.0801 25.7461 48.2598 25.6719C48.4434 25.5977 48.6035 25.4961 48.7402 25.3672C48.877 25.2344 48.9941 25.0801 49.0918 24.9043C49.1895 24.7285 49.2715 24.5371 49.3379 24.3301L50.7207 24.7988C50.5801 24.998 50.4121 25.1816 50.2168 25.3496C50.0215 25.5176 49.7969 25.6641 49.543 25.7891C49.293 25.9102 49.0117 26.0059 48.6992 26.0762C48.3906 26.1465 48.0508 26.1816 47.6797 26.1816C47.2617 26.1816 46.8828 26.1348 46.543 26.041C46.2031 25.9512 45.8984 25.8262 45.6289 25.666C45.3633 25.5059 45.1309 25.3184 44.9316 25.1035C44.7363 24.8848 44.5723 24.6523 44.4395 24.4062C44.3105 24.1602 44.2148 23.9043 44.1523 23.6387C44.0898 23.373 44.0586 23.1113 44.0586 22.8535C44.0586 22.6074 44.0859 22.3555 44.1406 22.0977C44.1992 21.8359 44.2891 21.5801 44.4102 21.3301C44.5312 21.0801 44.6836 20.8457 44.8672 20.627C45.0547 20.4043 45.2773 20.209 45.5352 20.041C45.7969 19.873 46.0957 19.7402 46.4316 19.6426C46.7676 19.5449 47.1445 19.4961 47.5625 19.4961C48.1758 19.4961 48.6973 19.5723 49.127 19.7246C49.5605 19.877 49.916 20.084 50.1934 20.3457C50.4746 20.6035 50.6836 20.9043 50.8203 21.248C50.9609 21.5918 51.0469 21.9551 51.0781 22.3379H45.916ZM47.5977 19.9062C47.3125 19.9062 47.0703 19.959 46.8711 20.0645C46.6758 20.1699 46.5137 20.3145 46.3848 20.498C46.2559 20.6816 46.1562 20.8984 46.0859 21.1484C46.0195 21.3945 45.9707 21.6602 45.9395 21.9453H49.2441C49.2207 21.6641 49.1777 21.4004 49.1152 21.1543C49.0566 20.9082 48.9648 20.6934 48.8398 20.5098C48.7188 20.3223 48.5566 20.1758 48.3535 20.0703C48.1543 19.9609 47.9023 19.9062 47.5977 19.9062ZM50.8145 11.9961H57.3477V12.3574C57.1003 12.3574 56.8952 12.377 56.7324 12.416C56.5697 12.4486 56.4395 12.4974 56.3418 12.5625C56.2507 12.6276 56.1855 12.7057 56.1465 12.7969C56.1074 12.888 56.0879 12.9889 56.0879 13.0996V13.1777C56.3092 14.1217 56.5469 15.0332 56.8008 15.9121C57.0612 16.7845 57.3314 17.6699 57.6113 18.5684C57.8978 19.4668 58.194 20.401 58.5 21.3711C58.8125 22.3411 59.1348 23.3893 59.4668 24.5156C59.8379 23.5065 60.1602 22.5658 60.4336 21.6934C60.707 20.8145 60.9447 19.9941 61.1465 19.2324C61.3483 18.4642 61.5176 17.748 61.6543 17.084C61.7975 16.4134 61.9212 15.7786 62.0254 15.1797L61.6738 13.7246C61.6283 13.5879 61.5501 13.4414 61.4395 13.2852C61.3353 13.1224 61.1921 12.9727 61.0098 12.8359C60.8275 12.6992 60.5996 12.5853 60.3262 12.4941C60.0592 12.403 59.7402 12.3574 59.3691 12.3574V11.9961H65.9121V12.3574C65.6582 12.3574 65.4499 12.377 65.2871 12.416C65.1243 12.4486 64.9941 12.4974 64.8965 12.5625C64.8053 12.6276 64.7402 12.7057 64.7012 12.7969C64.6686 12.888 64.6523 12.9889 64.6523 13.0996V13.2168C64.8607 14.1543 65.0723 15.0625 65.2871 15.9414C65.502 16.8138 65.7298 17.6992 65.9707 18.5977C66.2116 19.4896 66.4655 20.4206 66.7324 21.3906C67.0059 22.3542 67.3053 23.3958 67.6309 24.5156C68.0931 23.2526 68.4967 22.0938 68.8418 21.0391C69.1868 19.9779 69.4863 18.998 69.7402 18.0996C69.9941 17.2012 70.209 16.3743 70.3848 15.6191C70.5605 14.8574 70.7103 14.1445 70.834 13.4805V13.4414C70.834 13.2852 70.8047 13.1419 70.7461 13.0117C70.6875 12.875 70.5898 12.7611 70.4531 12.6699C70.3229 12.5723 70.1504 12.4974 69.9355 12.4453C69.7272 12.3867 69.4668 12.3574 69.1543 12.3574V11.9961H73.4707C73.1322 13.0703 72.7546 14.1738 72.3379 15.3066C71.9212 16.4395 71.4818 17.5755 71.0195 18.7148C70.5638 19.8542 70.0983 20.987 69.623 22.1133C69.1478 23.2396 68.6823 24.3366 68.2266 25.4043L64.9648 26C64.5352 24.6003 64.1413 23.2721 63.7832 22.0156C63.4316 20.7591 63.0996 19.5286 62.7871 18.3242C62.3639 19.5352 61.9245 20.7331 61.4688 21.918C61.0195 23.1029 60.554 24.265 60.0723 25.4043L56.8105 26C56.459 24.8607 56.1172 23.7702 55.7852 22.7285C55.4596 21.6868 55.1406 20.668 54.8281 19.6719C54.5221 18.6758 54.2259 17.6895 53.9395 16.7129C53.653 15.7363 53.3828 14.7402 53.1289 13.7246H53.1094C53.0638 13.5879 52.9889 13.4414 52.8848 13.2852C52.7806 13.1224 52.6341 12.9727 52.4453 12.8359C52.263 12.6992 52.0384 12.5853 51.7715 12.4941C51.5046 12.403 51.1855 12.3574 50.8145 12.3574V11.9961ZM77.2754 26H73.9824V25.7832C74.1465 25.7832 74.2793 25.7676 74.3809 25.7363C74.4863 25.7012 74.5684 25.6562 74.627 25.6016C74.6855 25.543 74.7246 25.4785 74.7441 25.4082C74.7676 25.334 74.7793 25.2559 74.7793 25.1738V20.5391C74.7793 20.4805 74.7695 20.416 74.75 20.3457C74.7305 20.2715 74.6914 20.2051 74.6328 20.1465C74.5781 20.084 74.498 20.0332 74.3926 19.9941C74.291 19.9512 74.1543 19.9297 73.9824 19.9297V19.7012H77.2754V19.9297C77.1191 19.9297 76.9883 19.9453 76.8828 19.9766C76.7812 20.0078 76.6992 20.0488 76.6367 20.0996C76.5781 20.1504 76.5371 20.2109 76.5137 20.2812C76.4902 20.3477 76.4785 20.418 76.4785 20.4922V25.1738C76.4785 25.2324 76.4883 25.2969 76.5078 25.3672C76.5273 25.4375 76.5645 25.5039 76.6191 25.5664C76.6777 25.625 76.7578 25.6758 76.8594 25.7188C76.9648 25.7617 77.1035 25.7832 77.2754 25.7832V26ZM74.7266 18.1426C74.7266 18.0176 74.75 17.9004 74.7969 17.791C74.8477 17.6777 74.9141 17.5801 74.9961 17.498C75.0781 17.416 75.1738 17.3516 75.2832 17.3047C75.3965 17.2539 75.5156 17.2285 75.6406 17.2285C75.7656 17.2285 75.8828 17.2539 75.9922 17.3047C76.1055 17.3516 76.2031 17.416 76.2852 17.498C76.3672 17.5801 76.4316 17.6777 76.4785 17.791C76.5293 17.9004 76.5547 18.0176 76.5547 18.1426C76.5547 18.2676 76.5293 18.3867 76.4785 18.5C76.4316 18.6094 76.3672 18.7051 76.2852 18.7871C76.2031 18.8691 76.1055 18.9336 75.9922 18.9805C75.8828 19.0273 75.7656 19.0508 75.6406 19.0508C75.5156 19.0508 75.3965 19.0273 75.2832 18.9805C75.1738 18.9336 75.0781 18.8691 74.9961 18.7871C74.9141 18.7051 74.8477 18.6094 74.7969 18.5C74.75 18.3867 74.7266 18.2676 74.7266 18.1426ZM77.9199 20.0703C78.0293 19.8555 78.0977 19.6426 78.125 19.4316C78.1562 19.2168 78.1719 19.0293 78.1719 18.8691C78.1719 18.8262 78.1699 18.7891 78.166 18.7578C78.166 18.7227 78.166 18.6934 78.166 18.6699C78.1621 18.6426 78.1602 18.6172 78.1602 18.5938L78.377 18.5586C78.3887 18.7344 78.4355 18.8848 78.5176 19.0098C78.6035 19.1348 78.707 19.2402 78.8281 19.3262C78.9531 19.4082 79.0898 19.4746 79.2383 19.5254C79.3867 19.5762 79.5332 19.6152 79.6777 19.6426C79.8223 19.666 79.9551 19.6816 80.0762 19.6895C80.2012 19.6973 80.3027 19.7012 80.3809 19.7012H84.9629C84.8574 19.9199 84.7891 20.1348 84.7578 20.3457C84.7266 20.5566 84.7109 20.7422 84.7109 20.9023C84.7109 20.9453 84.7109 20.9844 84.7109 21.0195C84.7109 21.0508 84.7129 21.0781 84.7168 21.1016C84.7168 21.1289 84.7188 21.1543 84.7227 21.1777L84.5117 21.2129C84.4961 21.0371 84.4453 20.8867 84.3594 20.7617C84.2773 20.6367 84.1738 20.5332 84.0488 20.4512C83.9277 20.3652 83.793 20.2969 83.6445 20.2461C83.4961 20.1953 83.3496 20.1582 83.2051 20.1348C83.0645 20.1074 82.9316 20.0898 82.8066 20.082C82.6816 20.0742 82.582 20.0703 82.5078 20.0703H82.3965C82.0254 20.0898 81.6934 20.1816 81.4004 20.3457C81.1113 20.5059 80.8652 20.7188 80.6621 20.9844C80.4629 21.2461 80.3086 21.5469 80.1992 21.8867C80.0938 22.2266 80.0391 22.582 80.0352 22.9531C80.0352 23.3242 80.0664 23.6816 80.1289 24.0254C80.1914 24.3652 80.291 24.666 80.4277 24.9277C80.5645 25.1895 80.7441 25.3984 80.9668 25.5547C81.1895 25.707 81.459 25.7832 81.7754 25.7832C82.0059 25.7832 82.2051 25.7461 82.373 25.6719C82.541 25.5977 82.6855 25.4961 82.8066 25.3672C82.9277 25.2344 83.0312 25.0801 83.1172 24.9043C83.2031 24.7285 83.2793 24.5371 83.3457 24.3301L84.7227 24.7988C84.582 24.998 84.4199 25.1816 84.2363 25.3496C84.0566 25.5176 83.8477 25.6641 83.6094 25.7891C83.375 25.9102 83.1094 26.0059 82.8125 26.0762C82.5156 26.1465 82.1816 26.1816 81.8105 26.1816C81.416 26.1816 81.0547 26.1387 80.7266 26.0527C80.4023 25.9668 80.1094 25.8477 79.8477 25.6953C79.5898 25.543 79.3633 25.3652 79.168 25.1621C78.9766 24.9551 78.8164 24.7324 78.6875 24.4941C78.5586 24.2559 78.4629 24.0078 78.4004 23.75C78.3379 23.4922 78.3066 23.2344 78.3066 22.9766C78.3066 22.6484 78.3555 22.3379 78.4531 22.0449C78.5508 21.748 78.6914 21.4766 78.875 21.2305C79.0625 20.9805 79.293 20.7578 79.5664 20.5625C79.8398 20.3672 80.1523 20.2031 80.5039 20.0703H77.9199ZM88.8418 26H85.4785V25.7832C85.6426 25.7832 85.7754 25.7676 85.877 25.7363C85.9785 25.7012 86.0586 25.6562 86.1172 25.6016C86.1758 25.543 86.2148 25.4785 86.2344 25.4082C86.2578 25.334 86.2695 25.2559 86.2695 25.1738V18.7051C86.2695 18.6465 86.2578 18.584 86.2344 18.5176C86.2148 18.4512 86.1758 18.3906 86.1172 18.3359C86.0586 18.2773 85.9785 18.2285 85.877 18.1895C85.7754 18.1504 85.6426 18.1309 85.4785 18.1309V17.9141H88.0449V20.7559C88.123 20.6191 88.2168 20.4863 88.3262 20.3574C88.4355 20.2246 88.5625 20.1035 88.707 19.9941C88.8555 19.8848 89.0215 19.7891 89.2051 19.707C89.3926 19.625 89.6035 19.5625 89.8379 19.5195C90.166 19.4609 90.459 19.4512 90.7168 19.4902C90.9746 19.5293 91.2012 19.6035 91.3965 19.7129C91.5918 19.8223 91.7578 19.9629 91.8945 20.1348C92.0312 20.3027 92.1426 20.4902 92.2285 20.6973C92.3145 20.9043 92.377 21.125 92.416 21.3594C92.4551 21.5938 92.4746 21.8281 92.4746 22.0625V25.1738C92.4746 25.2324 92.4844 25.2969 92.5039 25.3672C92.5234 25.4375 92.5605 25.5039 92.6152 25.5664C92.6699 25.625 92.748 25.6758 92.8496 25.7188C92.9551 25.7617 93.0938 25.7832 93.2656 25.7832V26H89.9785V25.7832C90.1426 25.7832 90.2754 25.7676 90.377 25.7363C90.4785 25.7012 90.5586 25.6562 90.6172 25.6016C90.6758 25.543 90.7148 25.4785 90.7344 25.4082C90.7578 25.334 90.7695 25.2559 90.7695 25.1738V21.7051C90.7695 21.4004 90.7344 21.1426 90.6641 20.9316C90.5938 20.7207 90.5 20.5547 90.3828 20.4336C90.2656 20.3086 90.1289 20.2266 89.9727 20.1875C89.8164 20.1484 89.6504 20.1504 89.4746 20.1934C89.2324 20.252 89.0215 20.3555 88.8418 20.5039C88.666 20.6484 88.5195 20.8242 88.4023 21.0312C88.2891 21.2344 88.2031 21.4629 88.1445 21.7168C88.0859 21.9707 88.0527 22.2344 88.0449 22.5078V25.1738C88.0449 25.2324 88.0547 25.2969 88.0742 25.3672C88.0938 25.4375 88.1309 25.5039 88.1855 25.5664C88.2441 25.625 88.3242 25.6758 88.4258 25.7188C88.5312 25.7617 88.6699 25.7832 88.8418 25.7832V26ZM101.248 26.4785C100.304 26.4785 99.4121 26.319 98.5723 26C97.7389 25.681 97.0065 25.235 96.375 24.6621C95.75 24.0827 95.2552 23.3958 94.8906 22.6016C94.526 21.8073 94.3438 20.9349 94.3438 19.9844C94.3438 19.0924 94.5293 18.2493 94.9004 17.4551C95.2715 16.6608 95.8021 15.9349 96.4922 15.2773C97.1823 14.6133 98.0189 14.0306 99.002 13.5293C99.985 13.0215 101.085 12.6113 102.303 12.2988L101.561 11.7812C101.098 11.4688 100.766 11.1009 100.564 10.6777C100.363 10.248 100.262 9.80859 100.262 9.35938C100.262 9.03385 100.307 8.71159 100.398 8.39258C100.496 8.07357 100.63 7.77734 100.799 7.50391C100.968 7.23047 101.167 6.98958 101.395 6.78125C101.622 6.56641 101.873 6.40039 102.146 6.2832L102.381 6.64453C101.945 6.95703 101.727 7.3151 101.727 7.71875C101.727 8.08984 101.896 8.48698 102.234 8.91016C102.573 9.33333 103.064 9.77604 103.709 10.2383C104.796 11.0326 105.75 11.7812 106.57 12.4844C107.397 13.181 108.087 13.8743 108.641 14.5645C109.201 15.2546 109.624 15.9577 109.91 16.6738C110.197 17.3835 110.35 18.1517 110.369 18.9785C110.369 19.8184 110.249 20.5866 110.008 21.2832C109.767 21.9733 109.435 22.5983 109.012 23.1582C108.589 23.7116 108.087 24.1966 107.508 24.6133C106.928 25.0299 106.3 25.3783 105.623 25.6582C104.946 25.9316 104.236 26.1367 103.494 26.2734C102.752 26.4102 102.003 26.4785 101.248 26.4785ZM107.068 19.7793C107.068 19.1283 106.997 18.513 106.854 17.9336C106.717 17.3477 106.489 16.7747 106.17 16.2148C105.857 15.6549 105.441 15.0983 104.92 14.5449C104.406 13.9915 103.768 13.4219 103.006 12.8359C102.492 12.9466 102.003 13.1191 101.541 13.3535C101.079 13.5814 100.649 13.8613 100.252 14.1934C99.8548 14.5189 99.4935 14.89 99.168 15.3066C98.849 15.7168 98.5755 16.1562 98.3477 16.625C98.1263 17.0872 97.9538 17.5723 97.8301 18.0801C97.7064 18.5814 97.6445 19.0892 97.6445 19.6035C97.6445 20.1113 97.6999 20.6126 97.8105 21.1074C97.9212 21.5957 98.0775 22.0645 98.2793 22.5137C98.4876 22.9564 98.7415 23.3665 99.041 23.7441C99.3405 24.1217 99.6758 24.4473 100.047 24.7207C100.424 24.9941 100.835 25.209 101.277 25.3652C101.727 25.5215 102.202 25.5996 102.703 25.5996C103.309 25.5996 103.875 25.4596 104.402 25.1797C104.936 24.8932 105.398 24.4961 105.789 23.9883C106.186 23.474 106.499 22.862 106.727 22.1523C106.954 21.4362 107.068 20.6452 107.068 19.7793ZM113.623 22.3379C113.615 22.4238 113.611 22.5078 113.611 22.5898C113.611 22.668 113.611 22.748 113.611 22.8301C113.611 23.2012 113.635 23.5625 113.682 23.9141C113.729 24.2656 113.814 24.5781 113.939 24.8516C114.068 25.125 114.246 25.3477 114.473 25.5195C114.699 25.6875 114.992 25.7754 115.352 25.7832C115.582 25.7832 115.787 25.7461 115.967 25.6719C116.15 25.5977 116.311 25.4961 116.447 25.3672C116.584 25.2344 116.701 25.0801 116.799 24.9043C116.896 24.7285 116.979 24.5371 117.045 24.3301L118.428 24.7988C118.287 24.998 118.119 25.1816 117.924 25.3496C117.729 25.5176 117.504 25.6641 117.25 25.7891C117 25.9102 116.719 26.0059 116.406 26.0762C116.098 26.1465 115.758 26.1816 115.387 26.1816C114.969 26.1816 114.59 26.1348 114.25 26.041C113.91 25.9512 113.605 25.8262 113.336 25.666C113.07 25.5059 112.838 25.3184 112.639 25.1035C112.443 24.8848 112.279 24.6523 112.146 24.4062C112.018 24.1602 111.922 23.9043 111.859 23.6387C111.797 23.373 111.766 23.1113 111.766 22.8535C111.766 22.6074 111.793 22.3555 111.848 22.0977C111.906 21.8359 111.996 21.5801 112.117 21.3301C112.238 21.0801 112.391 20.8457 112.574 20.627C112.762 20.4043 112.984 20.209 113.242 20.041C113.504 19.873 113.803 19.7402 114.139 19.6426C114.475 19.5449 114.852 19.4961 115.27 19.4961C115.883 19.4961 116.404 19.5723 116.834 19.7246C117.268 19.877 117.623 20.084 117.9 20.3457C118.182 20.6035 118.391 20.9043 118.527 21.248C118.668 21.5918 118.754 21.9551 118.785 22.3379H113.623ZM115.305 19.9062C115.02 19.9062 114.777 19.959 114.578 20.0645C114.383 20.1699 114.221 20.3145 114.092 20.498C113.963 20.6816 113.863 20.8984 113.793 21.1484C113.727 21.3945 113.678 21.6602 113.646 21.9453H116.951C116.928 21.6641 116.885 21.4004 116.822 21.1543C116.764 20.9082 116.672 20.6934 116.547 20.5098C116.426 20.3223 116.264 20.1758 116.061 20.0703C115.861 19.9609 115.609 19.9062 115.305 19.9062ZM118.838 19.7012H122.248V19.9297C122.123 19.9297 122.02 19.9395 121.938 19.959C121.859 19.9785 121.801 20.0117 121.762 20.0586C121.723 20.1016 121.699 20.1582 121.691 20.2285C121.688 20.2988 121.697 20.3828 121.721 20.4805C121.924 21.3516 122.168 22.2109 122.453 23.0586C122.742 23.9023 123.082 24.7305 123.473 25.543C123.668 25.1641 123.85 24.7695 124.018 24.3594C124.189 23.9492 124.346 23.5293 124.486 23.0996C124.631 22.6699 124.758 22.2344 124.867 21.793C124.98 21.3516 125.074 20.9141 125.148 20.4805C125.172 20.3711 125.16 20.2812 125.113 20.2109C125.07 20.1406 125.008 20.0859 124.926 20.0469C124.848 20.0039 124.758 19.9746 124.656 19.959C124.559 19.9434 124.467 19.9336 124.381 19.9297V19.7012H126.543C126.438 20.0254 126.32 20.3652 126.191 20.7207C126.062 21.0762 125.928 21.4395 125.787 21.8105C125.646 22.1777 125.5 22.5469 125.348 22.918C125.195 23.2852 125.041 23.6426 124.885 23.9902C124.729 24.3379 124.572 24.6699 124.416 24.9863C124.264 25.3027 124.113 25.5918 123.965 25.8535L121.885 26.1172C121.439 25.2109 121.055 24.2852 120.73 23.3398C120.41 22.3945 120.135 21.4414 119.904 20.4805C119.885 20.418 119.85 20.3535 119.799 20.2871C119.752 20.2207 119.686 20.1621 119.6 20.1113C119.514 20.0566 119.408 20.0137 119.283 19.9824C119.158 19.9473 119.01 19.9297 118.838 19.9297V19.7012Z" fill="white"/>
</svg>
