<svg width="195" height="48" viewBox="0 0 195 48" fill="none" xmlns="http://www.w3.org/2000/svg">
<rect width="195" height="48" rx="3" fill="#130101"/>
<path d="M32.2568 17.1523L31.5977 17.1816C31.3145 16.5664 30.9434 16.0195 30.4844 15.541C30.0352 15.0625 29.5273 14.6572 28.9609 14.3252C28.4043 13.9932 27.8135 13.7441 27.1885 13.5781C26.5635 13.4023 25.9434 13.3145 25.3281 13.3145C24.5859 13.3145 23.8877 13.4609 23.2334 13.7539C22.5791 14.0469 21.9785 14.4473 21.4316 14.9551C20.8848 15.4629 20.3916 16.0586 19.9521 16.7422C19.5225 17.416 19.1562 18.1387 18.8535 18.9102C18.5605 19.6719 18.3359 20.4629 18.1797 21.2832C18.0234 22.1035 17.9453 22.9043 17.9453 23.6855C17.9453 24.4766 18.0381 25.2529 18.2236 26.0146C18.4092 26.7764 18.6729 27.5039 19.0146 28.1973C19.3564 28.8809 19.7764 29.5107 20.2744 30.0869C20.7725 30.6631 21.3291 31.166 21.9443 31.5957C22.5596 32.0156 23.2334 32.3428 23.9658 32.5771C24.6982 32.8115 25.4746 32.9287 26.2949 32.9287C27.0371 32.9287 27.6914 32.8604 28.2578 32.7236C28.8242 32.5771 29.3125 32.3965 29.7227 32.1816C30.1426 31.9668 30.4941 31.7324 30.7773 31.4785C31.0605 31.2148 31.2949 30.9658 31.4805 30.7314C31.666 30.4971 31.8027 30.292 31.8906 30.1162C31.9883 29.9307 32.0615 29.8086 32.1104 29.75L31.876 31.8154C31.6221 32.1572 31.2705 32.4746 30.8213 32.7676C30.3818 33.0508 29.8643 33.2998 29.2686 33.5146C28.6729 33.7393 28.0088 33.9102 27.2764 34.0273C26.5537 34.1543 25.7871 34.2178 24.9766 34.2178C23.9023 34.2178 22.8574 34.1104 21.8418 33.8955C20.8359 33.6807 19.8887 33.373 19 32.9727C18.1113 32.5723 17.2959 32.0791 16.5537 31.4932C15.8213 30.8975 15.1865 30.2285 14.6494 29.4863C14.1221 28.7441 13.707 27.9238 13.4043 27.0254C13.1016 26.127 12.9453 25.165 12.9355 24.1396C12.9648 22.5576 13.2383 21.1367 13.7559 19.877C14.2832 18.6074 14.9814 17.5039 15.8506 16.5664C16.7295 15.6191 17.75 14.8379 18.9121 14.2227C20.0742 13.5977 21.3145 13.1338 22.6328 12.8311C23.3262 12.665 24.1221 12.5576 25.0205 12.5088C25.9189 12.46 26.8223 12.4355 27.7305 12.4355C28.6094 12.4355 29.4346 12.4453 30.2061 12.4648C30.9873 12.4844 31.6416 12.4941 32.1689 12.4941C32.0615 12.9531 31.9834 13.3633 31.9346 13.7246C31.8955 14.0762 31.876 14.4082 31.876 14.7207C31.876 15.1602 31.9102 15.5703 31.9785 15.9512C32.0469 16.3223 32.1396 16.7227 32.2568 17.1523ZM34.293 28.7803C34.293 28.4111 34.3398 28.0332 34.4336 27.6465C34.5273 27.2539 34.6709 26.8701 34.8643 26.4951C35.0576 26.1201 35.3008 25.7686 35.5938 25.4404C35.8926 25.1064 36.2412 24.8135 36.6396 24.5615C37.0439 24.3096 37.501 24.1104 38.0107 23.9639C38.5264 23.8174 39.0977 23.7441 39.7246 23.7441C40.3809 23.7441 40.9697 23.8115 41.4912 23.9463C42.0186 24.0811 42.4844 24.2686 42.8887 24.5088C43.293 24.7432 43.6416 25.0215 43.9346 25.3438C44.2275 25.666 44.4678 26.0146 44.6553 26.3896C44.8428 26.7646 44.9805 27.1572 45.0684 27.5674C45.1562 27.9717 45.2002 28.376 45.2002 28.7803C45.2002 29.167 45.1562 29.5596 45.0684 29.958C44.9805 30.3506 44.8398 30.7314 44.6465 31.1006C44.459 31.4697 44.2188 31.8184 43.9258 32.1465C43.6387 32.4688 43.29 32.75 42.8799 32.9902C42.4756 33.2305 42.0098 33.4209 41.4824 33.5615C40.9609 33.7021 40.375 33.7725 39.7246 33.7725C39.0977 33.7725 38.5293 33.7021 38.0195 33.5615C37.5098 33.4268 37.0527 33.2393 36.6484 32.999C36.25 32.7588 35.9014 32.4775 35.6025 32.1553C35.3096 31.8271 35.0635 31.4785 34.8643 31.1094C34.6709 30.7402 34.5273 30.3564 34.4336 29.958C34.3398 29.5596 34.293 29.167 34.293 28.7803ZM36.9736 28.7451C36.9736 29.3018 37.0117 29.8438 37.0879 30.3711C37.1699 30.8984 37.3105 31.3672 37.5098 31.7773C37.7148 32.1875 37.9902 32.5215 38.3359 32.7793C38.6875 33.0312 39.1328 33.1631 39.6719 33.1748C40.0293 33.1748 40.3486 33.1162 40.6299 32.999C40.9111 32.876 41.1572 32.709 41.3682 32.498C41.5791 32.2871 41.7578 32.041 41.9043 31.7598C42.0508 31.4785 42.1709 31.1768 42.2646 30.8545C42.3584 30.5322 42.4258 30.1982 42.4668 29.8525C42.5137 29.5068 42.543 29.1641 42.5547 28.8242C42.5547 28.4785 42.5371 28.127 42.502 27.7695C42.4668 27.4121 42.4082 27.0693 42.3262 26.7412C42.2441 26.4072 42.1328 26.0967 41.9922 25.8096C41.8574 25.5166 41.6875 25.2646 41.4824 25.0537C41.2773 24.8369 41.0342 24.667 40.7529 24.5439C40.4775 24.4209 40.1553 24.3594 39.7861 24.3594C39.2471 24.3594 38.7988 24.4824 38.4414 24.7285C38.084 24.9688 37.7969 25.291 37.5801 25.6953C37.3633 26.0996 37.208 26.5684 37.1143 27.1016C37.0264 27.6289 36.9795 28.1768 36.9736 28.7451ZM54.6924 32.0762C54.5518 32.2871 54.3789 32.4951 54.1738 32.7002C53.9688 32.8994 53.7256 33.0811 53.4443 33.2451C53.1631 33.4033 52.8438 33.5293 52.4863 33.623C52.1289 33.7227 51.7246 33.7725 51.2734 33.7725C50.5117 33.7725 49.8408 33.6377 49.2607 33.3682C48.6865 33.0928 48.2061 32.7354 47.8193 32.2959C47.4326 31.8506 47.1396 31.3496 46.9404 30.793C46.7471 30.2363 46.6504 29.6738 46.6504 29.1055C46.6504 28.6777 46.6914 28.2471 46.7734 27.8135C46.8613 27.3799 46.9932 26.9639 47.1689 26.5654C47.3447 26.1611 47.5674 25.7832 47.8369 25.4316C48.1064 25.0801 48.4287 24.7754 48.8037 24.5176C49.1787 24.2539 49.6064 24.0488 50.0869 23.9023C50.5674 23.75 51.1064 23.6738 51.7041 23.6738C52.0439 23.6738 52.3633 23.7031 52.6621 23.7617C52.9609 23.8145 53.2334 23.8877 53.4795 23.9814C53.7314 24.0693 53.957 24.1719 54.1562 24.2891C54.3613 24.4004 54.54 24.5117 54.6924 24.623V20.8438C54.6924 20.7559 54.6748 20.6621 54.6396 20.5625C54.6104 20.457 54.5518 20.3633 54.4639 20.2812C54.376 20.1934 54.2559 20.123 54.1035 20.0703C53.9512 20.0117 53.752 19.9824 53.5059 19.9824V19.6396H57.25V32.3135C57.25 32.4014 57.2646 32.4951 57.2939 32.5947C57.3291 32.6943 57.3906 32.7881 57.4785 32.876C57.5664 32.958 57.6865 33.0283 57.8389 33.0869C57.9971 33.1455 58.1963 33.1748 58.4365 33.1748V33.5H54.6924V32.0762ZM51.9238 32.8496C52.3047 32.8496 52.6387 32.7793 52.9258 32.6387C53.2129 32.498 53.459 32.3223 53.6641 32.1113C53.8691 31.9004 54.0361 31.6689 54.165 31.417C54.2998 31.1592 54.4053 30.916 54.4814 30.6875C54.5635 30.4531 54.6191 30.251 54.6484 30.0811C54.6777 29.9053 54.6924 29.791 54.6924 29.7383V26.3018L54.0156 27.2158C53.9863 26.6826 53.8926 26.2051 53.7344 25.7832C53.6641 25.6016 53.5762 25.4258 53.4707 25.2559C53.3652 25.0801 53.2334 24.9248 53.0752 24.79C52.9229 24.6553 52.7412 24.5469 52.5303 24.4648C52.3193 24.3828 52.0762 24.3418 51.8008 24.3418C51.3613 24.3418 50.9805 24.4531 50.6582 24.6758C50.3359 24.8984 50.0723 25.2031 49.8672 25.5898C49.6621 25.9707 49.5098 26.416 49.4102 26.9258C49.3105 27.4355 49.2607 27.9775 49.2607 28.5518C49.2607 29.3018 49.3311 29.9463 49.4717 30.4854C49.6182 31.0244 49.8115 31.4697 50.0518 31.8213C50.292 32.1729 50.5732 32.4336 50.8955 32.6035C51.2178 32.7676 51.5605 32.8496 51.9238 32.8496ZM62.374 28.0068C62.3623 28.1357 62.3564 28.2617 62.3564 28.3848C62.3564 28.502 62.3564 28.6221 62.3564 28.7451C62.3564 29.3018 62.3916 29.8438 62.4619 30.3711C62.5322 30.8984 62.6611 31.3672 62.8486 31.7773C63.042 32.1875 63.3086 32.5215 63.6484 32.7793C63.9883 33.0312 64.4277 33.1631 64.9668 33.1748C65.3125 33.1748 65.6201 33.1191 65.8896 33.0078C66.165 32.8965 66.4053 32.7441 66.6104 32.5508C66.8154 32.3516 66.9912 32.1201 67.1377 31.8564C67.2842 31.5928 67.4072 31.3057 67.5068 30.9951L69.5811 31.6982C69.3701 31.9971 69.1182 32.2725 68.8252 32.5244C68.5322 32.7764 68.1953 32.9961 67.8145 33.1836C67.4395 33.3652 67.0176 33.5088 66.5488 33.6143C66.0859 33.7197 65.5762 33.7725 65.0195 33.7725C64.3926 33.7725 63.8242 33.7021 63.3145 33.5615C62.8047 33.4268 62.3477 33.2393 61.9434 32.999C61.5449 32.7588 61.1963 32.4775 60.8975 32.1553C60.6045 31.8271 60.3584 31.4785 60.1592 31.1094C59.9658 30.7402 59.8223 30.3564 59.7285 29.958C59.6348 29.5596 59.5879 29.167 59.5879 28.7803C59.5879 28.4111 59.6289 28.0332 59.7109 27.6465C59.7988 27.2539 59.9336 26.8701 60.1152 26.4951C60.2969 26.1201 60.5254 25.7686 60.8008 25.4404C61.082 25.1064 61.416 24.8135 61.8027 24.5615C62.1953 24.3096 62.6436 24.1104 63.1475 23.9639C63.6514 23.8174 64.2168 23.7441 64.8438 23.7441C65.7637 23.7441 66.5459 23.8584 67.1904 24.0869C67.8408 24.3154 68.374 24.626 68.79 25.0186C69.2119 25.4053 69.5254 25.8564 69.7305 26.3721C69.9414 26.8877 70.0703 27.4326 70.1172 28.0068H62.374ZM64.8965 24.3594C64.4688 24.3594 64.1055 24.4385 63.8066 24.5967C63.5137 24.7549 63.2705 24.9717 63.0771 25.2471C62.8838 25.5225 62.7344 25.8477 62.6289 26.2227C62.5293 26.5918 62.4561 26.9902 62.4092 27.418H67.3662C67.3311 26.9961 67.2666 26.6006 67.1729 26.2314C67.085 25.8623 66.9473 25.54 66.7598 25.2646C66.5781 24.9834 66.335 24.7637 66.0303 24.6055C65.7314 24.4414 65.3535 24.3594 64.8965 24.3594ZM69.7217 12.4941H79.5215V13.0361C79.1504 13.0361 78.8428 13.0654 78.5986 13.124C78.3545 13.1729 78.1592 13.2461 78.0127 13.3438C77.876 13.4414 77.7783 13.5586 77.7197 13.6953C77.6611 13.832 77.6318 13.9834 77.6318 14.1494V14.2666C77.9639 15.6826 78.3203 17.0498 78.7012 18.3682C79.0918 19.6768 79.4971 21.0049 79.917 22.3525C80.3467 23.7002 80.791 25.1016 81.25 26.5566C81.7188 28.0117 82.2021 29.584 82.7002 31.2734C83.2568 29.7598 83.7402 28.3486 84.1504 27.04C84.5605 25.7217 84.917 24.4912 85.2197 23.3486C85.5225 22.1963 85.7764 21.1221 85.9814 20.126C86.1963 19.1201 86.3818 18.168 86.5381 17.2695L86.0107 15.0869C85.9424 14.8818 85.8252 14.6621 85.6592 14.4277C85.5029 14.1836 85.2881 13.959 85.0146 13.7539C84.7412 13.5488 84.3994 13.3779 83.9893 13.2412C83.5889 13.1045 83.1104 13.0361 82.5537 13.0361V12.4941H92.3682V13.0361C91.9873 13.0361 91.6748 13.0654 91.4307 13.124C91.1865 13.1729 90.9912 13.2461 90.8447 13.3438C90.708 13.4414 90.6104 13.5586 90.5518 13.6953C90.5029 13.832 90.4785 13.9834 90.4785 14.1494V14.3252C90.791 15.7314 91.1084 17.0938 91.4307 18.4121C91.7529 19.7207 92.0947 21.0488 92.4561 22.3965C92.8174 23.7344 93.1982 25.1309 93.5986 26.5859C94.0088 28.0312 94.458 29.5938 94.9463 31.2734C95.6396 29.3789 96.2451 27.6406 96.7627 26.0586C97.2803 24.4668 97.7295 22.9971 98.1104 21.6494C98.4912 20.3018 98.8135 19.0615 99.0771 17.9287C99.3408 16.7861 99.5654 15.7168 99.751 14.7207V14.6621C99.751 14.4277 99.707 14.2129 99.6191 14.0176C99.5312 13.8125 99.3848 13.6416 99.1797 13.5049C98.9844 13.3584 98.7256 13.2461 98.4033 13.168C98.0908 13.0801 97.7002 13.0361 97.2314 13.0361V12.4941H103.706C103.198 14.1055 102.632 15.7607 102.007 17.46C101.382 19.1592 100.723 20.8633 100.029 22.5723C99.3457 24.2812 98.6475 25.9805 97.9346 27.6699C97.2217 29.3594 96.5234 31.0049 95.8398 32.6064L90.9473 33.5C90.3027 31.4004 89.7119 29.4082 89.1748 27.5234C88.6475 25.6387 88.1494 23.793 87.6807 21.9863C87.0459 23.8027 86.3867 25.5996 85.7031 27.377C85.0293 29.1543 84.3311 30.8975 83.6084 32.6064L78.7158 33.5C78.1885 31.791 77.6758 30.1553 77.1777 28.5928C76.6895 27.0303 76.2109 25.502 75.7422 24.0078C75.2832 22.5137 74.8389 21.0342 74.4092 19.5693C73.9795 18.1045 73.5742 16.6104 73.1934 15.0869H73.1641C73.0957 14.8818 72.9834 14.6621 72.8271 14.4277C72.6709 14.1836 72.4512 13.959 72.168 13.7539C71.8945 13.5488 71.5576 13.3779 71.1572 13.2412C70.7568 13.1045 70.2783 13.0361 69.7217 13.0361V12.4941ZM109.413 33.5H104.474V33.1748C104.72 33.1748 104.919 33.1514 105.071 33.1045C105.229 33.0518 105.353 32.9844 105.44 32.9023C105.528 32.8145 105.587 32.7178 105.616 32.6123C105.651 32.501 105.669 32.3838 105.669 32.2607V25.3086C105.669 25.2207 105.654 25.124 105.625 25.0186C105.596 24.9072 105.537 24.8076 105.449 24.7197C105.367 24.626 105.247 24.5498 105.089 24.4912C104.937 24.4268 104.731 24.3945 104.474 24.3945V24.0518H109.413V24.3945C109.179 24.3945 108.982 24.418 108.824 24.4648C108.672 24.5117 108.549 24.5732 108.455 24.6494C108.367 24.7256 108.306 24.8164 108.271 24.9219C108.235 25.0215 108.218 25.127 108.218 25.2383V32.2607C108.218 32.3486 108.232 32.4453 108.262 32.5508C108.291 32.6562 108.347 32.7559 108.429 32.8496C108.517 32.9375 108.637 33.0137 108.789 33.0781C108.947 33.1426 109.155 33.1748 109.413 33.1748V33.5ZM105.59 21.7139C105.59 21.5264 105.625 21.3506 105.695 21.1865C105.771 21.0166 105.871 20.8701 105.994 20.7471C106.117 20.624 106.261 20.5273 106.425 20.457C106.595 20.3809 106.773 20.3428 106.961 20.3428C107.148 20.3428 107.324 20.3809 107.488 20.457C107.658 20.5273 107.805 20.624 107.928 20.7471C108.051 20.8701 108.147 21.0166 108.218 21.1865C108.294 21.3506 108.332 21.5264 108.332 21.7139C108.332 21.9014 108.294 22.0801 108.218 22.25C108.147 22.4141 108.051 22.5576 107.928 22.6807C107.805 22.8037 107.658 22.9004 107.488 22.9707C107.324 23.041 107.148 23.0762 106.961 23.0762C106.773 23.0762 106.595 23.041 106.425 22.9707C106.261 22.9004 106.117 22.8037 105.994 22.6807C105.871 22.5576 105.771 22.4141 105.695 22.25C105.625 22.0801 105.59 21.9014 105.59 21.7139ZM110.38 24.6055C110.544 24.2832 110.646 23.9639 110.688 23.6475C110.734 23.3252 110.758 23.0439 110.758 22.8037C110.758 22.7393 110.755 22.6836 110.749 22.6367C110.749 22.584 110.749 22.54 110.749 22.5049C110.743 22.4639 110.74 22.4258 110.74 22.3906L111.065 22.3379C111.083 22.6016 111.153 22.8271 111.276 23.0146C111.405 23.2021 111.561 23.3604 111.742 23.4893C111.93 23.6123 112.135 23.7119 112.357 23.7881C112.58 23.8643 112.8 23.9229 113.017 23.9639C113.233 23.999 113.433 24.0225 113.614 24.0342C113.802 24.0459 113.954 24.0518 114.071 24.0518H120.944C120.786 24.3799 120.684 24.7021 120.637 25.0186C120.59 25.335 120.566 25.6133 120.566 25.8535C120.566 25.918 120.566 25.9766 120.566 26.0293C120.566 26.0762 120.569 26.1172 120.575 26.1523C120.575 26.1934 120.578 26.2314 120.584 26.2666L120.268 26.3193C120.244 26.0557 120.168 25.8301 120.039 25.6426C119.916 25.4551 119.761 25.2998 119.573 25.1768C119.392 25.0479 119.189 24.9453 118.967 24.8691C118.744 24.793 118.524 24.7373 118.308 24.7021C118.097 24.6611 117.897 24.6348 117.71 24.623C117.522 24.6113 117.373 24.6055 117.262 24.6055H117.095C116.538 24.6348 116.04 24.7725 115.601 25.0186C115.167 25.2588 114.798 25.5781 114.493 25.9766C114.194 26.3691 113.963 26.8203 113.799 27.3301C113.641 27.8398 113.559 28.373 113.553 28.9297C113.553 29.4863 113.6 30.0225 113.693 30.5381C113.787 31.0479 113.937 31.499 114.142 31.8916C114.347 32.2842 114.616 32.5977 114.95 32.832C115.284 33.0605 115.688 33.1748 116.163 33.1748C116.509 33.1748 116.808 33.1191 117.06 33.0078C117.312 32.8965 117.528 32.7441 117.71 32.5508C117.892 32.3516 118.047 32.1201 118.176 31.8564C118.305 31.5928 118.419 31.3057 118.519 30.9951L120.584 31.6982C120.373 31.9971 120.13 32.2725 119.854 32.5244C119.585 32.7764 119.271 32.9961 118.914 33.1836C118.562 33.3652 118.164 33.5088 117.719 33.6143C117.273 33.7197 116.772 33.7725 116.216 33.7725C115.624 33.7725 115.082 33.708 114.59 33.5791C114.104 33.4502 113.664 33.2715 113.271 33.043C112.885 32.8145 112.545 32.5479 112.252 32.2432C111.965 31.9326 111.725 31.5986 111.531 31.2412C111.338 30.8838 111.194 30.5117 111.101 30.125C111.007 29.7383 110.96 29.3516 110.96 28.9648C110.96 28.4727 111.033 28.0068 111.18 27.5674C111.326 27.1221 111.537 26.7148 111.812 26.3457C112.094 25.9707 112.439 25.6367 112.85 25.3438C113.26 25.0508 113.729 24.8047 114.256 24.6055H110.38ZM126.763 33.5H121.718V33.1748C121.964 33.1748 122.163 33.1514 122.315 33.1045C122.468 33.0518 122.588 32.9844 122.676 32.9023C122.764 32.8145 122.822 32.7178 122.852 32.6123C122.887 32.501 122.904 32.3838 122.904 32.2607V22.5576C122.904 22.4697 122.887 22.376 122.852 22.2764C122.822 22.1768 122.764 22.0859 122.676 22.0039C122.588 21.916 122.468 21.8428 122.315 21.7842C122.163 21.7256 121.964 21.6963 121.718 21.6963V21.3711H125.567V25.6338C125.685 25.4287 125.825 25.2295 125.989 25.0361C126.153 24.8369 126.344 24.6553 126.561 24.4912C126.783 24.3271 127.032 24.1836 127.308 24.0605C127.589 23.9375 127.905 23.8438 128.257 23.7793C128.749 23.6914 129.188 23.6768 129.575 23.7354C129.962 23.7939 130.302 23.9053 130.595 24.0693C130.888 24.2334 131.137 24.4443 131.342 24.7021C131.547 24.9541 131.714 25.2354 131.843 25.5459C131.972 25.8564 132.065 26.1875 132.124 26.5391C132.183 26.8906 132.212 27.2422 132.212 27.5938V32.2607C132.212 32.3486 132.227 32.4453 132.256 32.5508C132.285 32.6562 132.341 32.7559 132.423 32.8496C132.505 32.9375 132.622 33.0137 132.774 33.0781C132.933 33.1426 133.141 33.1748 133.398 33.1748V33.5H128.468V33.1748C128.714 33.1748 128.913 33.1514 129.065 33.1045C129.218 33.0518 129.338 32.9844 129.426 32.9023C129.514 32.8145 129.572 32.7178 129.602 32.6123C129.637 32.501 129.654 32.3838 129.654 32.2607V27.0576C129.654 26.6006 129.602 26.2139 129.496 25.8975C129.391 25.5811 129.25 25.332 129.074 25.1504C128.898 24.9629 128.693 24.8398 128.459 24.7812C128.225 24.7227 127.976 24.7256 127.712 24.79C127.349 24.8779 127.032 25.0332 126.763 25.2559C126.499 25.4727 126.279 25.7363 126.104 26.0469C125.934 26.3516 125.805 26.6943 125.717 27.0752C125.629 27.4561 125.579 27.8516 125.567 28.2617V32.2607C125.567 32.3486 125.582 32.4453 125.611 32.5508C125.641 32.6562 125.696 32.7559 125.778 32.8496C125.866 32.9375 125.986 33.0137 126.139 33.0781C126.297 33.1426 126.505 33.1748 126.763 33.1748V33.5ZM145.372 34.2178C143.956 34.2178 142.618 33.9785 141.358 33.5C140.108 33.0215 139.01 32.3525 138.062 31.4932C137.125 30.624 136.383 29.5938 135.836 28.4023C135.289 27.2109 135.016 25.9023 135.016 24.4766C135.016 23.1387 135.294 21.874 135.851 20.6826C136.407 19.4912 137.203 18.4023 138.238 17.416C139.273 16.4199 140.528 15.5459 142.003 14.7939C143.478 14.0322 145.128 13.417 146.954 12.9482L145.841 12.1719C145.147 11.7031 144.649 11.1514 144.347 10.5166C144.044 9.87207 143.893 9.21289 143.893 8.53906C143.893 8.05078 143.961 7.56738 144.098 7.08887C144.244 6.61035 144.444 6.16602 144.698 5.75586C144.952 5.3457 145.25 4.98437 145.592 4.67188C145.934 4.34961 146.31 4.10059 146.72 3.9248L147.071 4.4668C146.417 4.93555 146.09 5.47266 146.09 6.07812C146.09 6.63477 146.344 7.23047 146.852 7.86523C147.359 8.5 148.097 9.16406 149.063 9.85742C150.694 11.0488 152.125 12.1719 153.355 13.2266C154.596 14.2715 155.631 15.3115 156.461 16.3467C157.301 17.3818 157.936 18.4365 158.365 19.5107C158.795 20.5752 159.024 21.7275 159.054 22.9678C159.054 24.2275 158.873 25.3799 158.512 26.4248C158.15 27.46 157.652 28.3975 157.018 29.2373C156.383 30.0674 155.631 30.7949 154.762 31.4199C153.893 32.0449 152.95 32.5674 151.935 32.9873C150.919 33.3975 149.854 33.7051 148.741 33.9102C147.628 34.1152 146.505 34.2178 145.372 34.2178ZM154.103 24.1689C154.103 23.1924 153.995 22.2695 153.78 21.4004C153.575 20.5215 153.233 19.6621 152.755 18.8223C152.286 17.9824 151.661 17.1475 150.88 16.3174C150.108 15.4873 149.151 14.6328 148.009 13.7539C147.237 13.9199 146.505 14.1787 145.812 14.5303C145.118 14.8721 144.474 15.292 143.878 15.79C143.282 16.2783 142.74 16.835 142.252 17.46C141.773 18.0752 141.363 18.7344 141.021 19.4375C140.689 20.1309 140.431 20.8584 140.245 21.6201C140.06 22.3721 139.967 23.1338 139.967 23.9053C139.967 24.667 140.05 25.4189 140.216 26.1611C140.382 26.8936 140.616 27.5967 140.919 28.2705C141.231 28.9346 141.612 29.5498 142.062 30.1162C142.511 30.6826 143.014 31.1709 143.57 31.5811C144.137 31.9912 144.752 32.3135 145.416 32.5479C146.09 32.7822 146.803 32.8994 147.555 32.8994C148.463 32.8994 149.312 32.6895 150.104 32.2695C150.904 31.8398 151.598 31.2441 152.184 30.4824C152.779 29.7109 153.248 28.793 153.59 27.7285C153.932 26.6543 154.103 25.4678 154.103 24.1689ZM163.935 28.0068C163.923 28.1357 163.917 28.2617 163.917 28.3848C163.917 28.502 163.917 28.6221 163.917 28.7451C163.917 29.3018 163.952 29.8438 164.022 30.3711C164.093 30.8984 164.222 31.3672 164.409 31.7773C164.603 32.1875 164.869 32.5215 165.209 32.7793C165.549 33.0312 165.988 33.1631 166.527 33.1748C166.873 33.1748 167.181 33.1191 167.45 33.0078C167.726 32.8965 167.966 32.7441 168.171 32.5508C168.376 32.3516 168.552 32.1201 168.698 31.8564C168.845 31.5928 168.968 31.3057 169.067 30.9951L171.142 31.6982C170.931 31.9971 170.679 32.2725 170.386 32.5244C170.093 32.7764 169.756 32.9961 169.375 33.1836C169 33.3652 168.578 33.5088 168.109 33.6143C167.646 33.7197 167.137 33.7725 166.58 33.7725C165.953 33.7725 165.385 33.7021 164.875 33.5615C164.365 33.4268 163.908 33.2393 163.504 32.999C163.105 32.7588 162.757 32.4775 162.458 32.1553C162.165 31.8271 161.919 31.4785 161.72 31.1094C161.526 30.7402 161.383 30.3564 161.289 29.958C161.195 29.5596 161.148 29.167 161.148 28.7803C161.148 28.4111 161.189 28.0332 161.271 27.6465C161.359 27.2539 161.494 26.8701 161.676 26.4951C161.857 26.1201 162.086 25.7686 162.361 25.4404C162.643 25.1064 162.977 24.8135 163.363 24.5615C163.756 24.3096 164.204 24.1104 164.708 23.9639C165.212 23.8174 165.777 23.7441 166.404 23.7441C167.324 23.7441 168.106 23.8584 168.751 24.0869C169.401 24.3154 169.935 24.626 170.351 25.0186C170.772 25.4053 171.086 25.8564 171.291 26.3721C171.502 26.8877 171.631 27.4326 171.678 28.0068H163.935ZM166.457 24.3594C166.029 24.3594 165.666 24.4385 165.367 24.5967C165.074 24.7549 164.831 24.9717 164.638 25.2471C164.444 25.5225 164.295 25.8477 164.189 26.2227C164.09 26.5918 164.017 26.9902 163.97 27.418H168.927C168.892 26.9961 168.827 26.6006 168.733 26.2314C168.646 25.8623 168.508 25.54 168.32 25.2646C168.139 24.9834 167.896 24.7637 167.591 24.6055C167.292 24.4414 166.914 24.3594 166.457 24.3594ZM171.757 24.0518H176.872V24.3945C176.685 24.3945 176.529 24.4092 176.406 24.4385C176.289 24.4678 176.201 24.5176 176.143 24.5879C176.084 24.6523 176.049 24.7373 176.037 24.8428C176.031 24.9482 176.046 25.0742 176.081 25.2207C176.386 26.5273 176.752 27.8164 177.18 29.0879C177.613 30.3535 178.123 31.5957 178.709 32.8145C179.002 32.2461 179.274 31.6543 179.526 31.0391C179.784 30.4238 180.019 29.7939 180.229 29.1494C180.446 28.5049 180.637 27.8516 180.801 27.1895C180.971 26.5273 181.111 25.8711 181.223 25.2207C181.258 25.0566 181.24 24.9219 181.17 24.8164C181.105 24.7109 181.012 24.6289 180.889 24.5703C180.771 24.5059 180.637 24.4619 180.484 24.4385C180.338 24.415 180.2 24.4004 180.071 24.3945V24.0518H183.314C183.156 24.5381 182.98 25.0479 182.787 25.5811C182.594 26.1143 182.392 26.6592 182.181 27.2158C181.97 27.7666 181.75 28.3203 181.521 28.877C181.293 29.4277 181.062 29.9639 180.827 30.4854C180.593 31.0068 180.358 31.5049 180.124 31.9795C179.896 32.4541 179.67 32.8877 179.447 33.2803L176.327 33.6758C175.659 32.3164 175.082 30.9277 174.596 29.5098C174.115 28.0918 173.702 26.6621 173.356 25.2207C173.327 25.127 173.274 25.0303 173.198 24.9307C173.128 24.8311 173.028 24.7432 172.899 24.667C172.771 24.585 172.612 24.5205 172.425 24.4736C172.237 24.4209 172.015 24.3945 171.757 24.3945V24.0518Z" fill="white"/>
</svg>
